<mxfile host="Electron" modified="2025-06-13T15:31:14.156Z" agent="Mozilla/5.0 (Macintosh; Intel Mac OS X 10_15_7) AppleWebKit/537.36 (KHTML, like Gecko) draw.io/21.1.2 Chrome/106.0.5249.199 Electron/21.4.3 Safari/537.36" etag="ky_0CRJvm-C1V0-TitUt" version="21.1.2" type="device">
  <diagram name="Page-1" id="XSJ5ditq8LGPdKxRqv7D">
    <mxGraphModel dx="887" dy="586" grid="1" gridSize="10" guides="1" tooltips="1" connect="1" arrows="1" fold="1" page="1" pageScale="1" pageWidth="1100" pageHeight="850" math="0" shadow="0">
      <root>
        <mxCell id="0" />
        <mxCell id="1" parent="0" />
        <mxCell id="U552cM0rFRxmbvw90yUP-81" value="&lt;font face=&quot;Times New Roman&quot;&gt;3&lt;/font&gt;" style="curved=1;endArrow=open;html=1;rounded=0;exitX=0.5;exitY=0;exitDx=0;exitDy=0;entryX=0.5;entryY=1;entryDx=0;entryDy=0;endFill=0;" edge="1" parent="1">
          <mxGeometry x="0.0025" width="50" height="50" relative="1" as="geometry">
            <mxPoint x="782.77" y="699" as="sourcePoint" />
            <mxPoint x="782.77" y="639" as="targetPoint" />
            <Array as="points" />
            <mxPoint as="offset" />
          </mxGeometry>
        </mxCell>
        <mxCell id="U552cM0rFRxmbvw90yUP-96" value="" style="ellipse;whiteSpace=wrap;html=1;aspect=fixed;strokeColor=none;" vertex="1" parent="1">
          <mxGeometry x="780" y="655" width="5" height="5" as="geometry" />
        </mxCell>
        <mxCell id="U552cM0rFRxmbvw90yUP-77" value="&lt;font face=&quot;Times New Roman&quot;&gt;&amp;nbsp;2&amp;nbsp;&lt;/font&gt;" style="curved=1;endArrow=open;html=1;rounded=0;exitX=1;exitY=0.5;exitDx=0;exitDy=0;entryX=0;entryY=0.5;entryDx=0;entryDy=0;endFill=0;" edge="1" parent="1">
          <mxGeometry width="50" height="50" relative="1" as="geometry">
            <mxPoint x="793" y="709.77" as="sourcePoint" />
            <mxPoint x="853" y="709.77" as="targetPoint" />
            <Array as="points" />
          </mxGeometry>
        </mxCell>
        <mxCell id="U552cM0rFRxmbvw90yUP-95" value="" style="ellipse;whiteSpace=wrap;html=1;aspect=fixed;strokeColor=none;" vertex="1" parent="1">
          <mxGeometry x="807" y="707" width="5" height="5" as="geometry" />
        </mxCell>
        <mxCell id="aqaGbpYnzecu4YKPlDBe-2" value="" style="ellipse;whiteSpace=wrap;html=1;aspect=fixed;gradientColor=none;fillColor=#000000;strokeColor=none;" parent="1" vertex="1">
          <mxGeometry x="280" y="240" width="10" height="10" as="geometry" />
        </mxCell>
        <mxCell id="aqaGbpYnzecu4YKPlDBe-4" value="" style="ellipse;whiteSpace=wrap;html=1;aspect=fixed;gradientColor=none;fillColor=#000000;strokeColor=none;" parent="1" vertex="1">
          <mxGeometry x="240" y="281.09" width="10" height="10" as="geometry" />
        </mxCell>
        <mxCell id="aqaGbpYnzecu4YKPlDBe-5" value="" style="ellipse;whiteSpace=wrap;html=1;aspect=fixed;gradientColor=none;fillColor=#000000;strokeColor=none;" parent="1" vertex="1">
          <mxGeometry x="320" y="281.09" width="10" height="10" as="geometry" />
        </mxCell>
        <mxCell id="aqaGbpYnzecu4YKPlDBe-6" value="" style="ellipse;whiteSpace=wrap;html=1;aspect=fixed;gradientColor=none;fillColor=#000000;strokeColor=none;" parent="1" vertex="1">
          <mxGeometry x="280" y="320" width="10" height="10" as="geometry" />
        </mxCell>
        <mxCell id="aqaGbpYnzecu4YKPlDBe-7" value="" style="ellipse;whiteSpace=wrap;html=1;aspect=fixed;gradientColor=none;fillColor=#000000;strokeColor=none;" parent="1" vertex="1">
          <mxGeometry x="200" y="320" width="10" height="10" as="geometry" />
        </mxCell>
        <mxCell id="aqaGbpYnzecu4YKPlDBe-8" value="" style="ellipse;whiteSpace=wrap;html=1;aspect=fixed;gradientColor=none;fillColor=#000000;strokeColor=none;" parent="1" vertex="1">
          <mxGeometry x="360" y="320" width="10" height="10" as="geometry" />
        </mxCell>
        <mxCell id="aqaGbpYnzecu4YKPlDBe-9" value="" style="ellipse;whiteSpace=wrap;html=1;aspect=fixed;gradientColor=none;fillColor=#000000;strokeColor=none;" parent="1" vertex="1">
          <mxGeometry x="240" y="360" width="10" height="10" as="geometry" />
        </mxCell>
        <mxCell id="aqaGbpYnzecu4YKPlDBe-10" value="" style="ellipse;whiteSpace=wrap;html=1;aspect=fixed;gradientColor=none;fillColor=#000000;strokeColor=none;" parent="1" vertex="1">
          <mxGeometry x="160" y="360" width="10" height="10" as="geometry" />
        </mxCell>
        <mxCell id="aqaGbpYnzecu4YKPlDBe-11" value="" style="ellipse;whiteSpace=wrap;html=1;aspect=fixed;gradientColor=none;fillColor=#000000;strokeColor=none;" parent="1" vertex="1">
          <mxGeometry x="320" y="360" width="10" height="10" as="geometry" />
        </mxCell>
        <mxCell id="aqaGbpYnzecu4YKPlDBe-12" value="" style="ellipse;whiteSpace=wrap;html=1;aspect=fixed;gradientColor=none;fillColor=#000000;strokeColor=none;" parent="1" vertex="1">
          <mxGeometry x="200" y="400" width="10" height="10" as="geometry" />
        </mxCell>
        <mxCell id="aqaGbpYnzecu4YKPlDBe-13" value="" style="ellipse;whiteSpace=wrap;html=1;aspect=fixed;gradientColor=none;fillColor=#000000;strokeColor=none;" parent="1" vertex="1">
          <mxGeometry x="280" y="400" width="10" height="10" as="geometry" />
        </mxCell>
        <mxCell id="aqaGbpYnzecu4YKPlDBe-14" value="" style="ellipse;whiteSpace=wrap;html=1;aspect=fixed;gradientColor=none;fillColor=#000000;strokeColor=none;" parent="1" vertex="1">
          <mxGeometry x="240" y="440" width="10" height="10" as="geometry" />
        </mxCell>
        <mxCell id="aqaGbpYnzecu4YKPlDBe-15" value="" style="endArrow=open;html=1;rounded=0;exitX=1;exitY=1;exitDx=0;exitDy=0;entryX=0;entryY=0;entryDx=0;entryDy=0;targetPerimeterSpacing=0;sourcePerimeterSpacing=0;endFill=0;strokeWidth=1.25;" parent="1" source="aqaGbpYnzecu4YKPlDBe-2" target="aqaGbpYnzecu4YKPlDBe-5" edge="1">
          <mxGeometry width="50" height="50" relative="1" as="geometry">
            <mxPoint x="380" y="420" as="sourcePoint" />
            <mxPoint x="430" y="370" as="targetPoint" />
          </mxGeometry>
        </mxCell>
        <mxCell id="aqaGbpYnzecu4YKPlDBe-18" value="" style="endArrow=open;html=1;rounded=0;exitX=1;exitY=1;exitDx=0;exitDy=0;entryX=0;entryY=0;entryDx=0;entryDy=0;targetPerimeterSpacing=0;sourcePerimeterSpacing=0;endFill=0;strokeWidth=1.25;" parent="1" source="aqaGbpYnzecu4YKPlDBe-5" target="aqaGbpYnzecu4YKPlDBe-8" edge="1">
          <mxGeometry width="50" height="50" relative="1" as="geometry">
            <mxPoint x="370" y="281.09" as="sourcePoint" />
            <mxPoint x="402" y="315.09" as="targetPoint" />
          </mxGeometry>
        </mxCell>
        <mxCell id="aqaGbpYnzecu4YKPlDBe-19" value="" style="endArrow=open;html=1;rounded=0;exitX=1;exitY=1;exitDx=0;exitDy=0;entryX=0;entryY=0;entryDx=0;entryDy=0;targetPerimeterSpacing=0;sourcePerimeterSpacing=0;endFill=0;strokeWidth=1.25;" parent="1" source="aqaGbpYnzecu4YKPlDBe-4" target="aqaGbpYnzecu4YKPlDBe-6" edge="1">
          <mxGeometry width="50" height="50" relative="1" as="geometry">
            <mxPoint x="390" y="281.09" as="sourcePoint" />
            <mxPoint x="422" y="315.09" as="targetPoint" />
          </mxGeometry>
        </mxCell>
        <mxCell id="aqaGbpYnzecu4YKPlDBe-20" value="" style="endArrow=open;html=1;rounded=0;exitX=1;exitY=1;exitDx=0;exitDy=0;entryX=0;entryY=0;entryDx=0;entryDy=0;targetPerimeterSpacing=0;sourcePerimeterSpacing=0;endFill=0;strokeWidth=1.25;" parent="1" source="aqaGbpYnzecu4YKPlDBe-7" target="aqaGbpYnzecu4YKPlDBe-9" edge="1">
          <mxGeometry width="50" height="50" relative="1" as="geometry">
            <mxPoint x="420" y="269.09" as="sourcePoint" />
            <mxPoint x="452" y="303.09" as="targetPoint" />
          </mxGeometry>
        </mxCell>
        <mxCell id="aqaGbpYnzecu4YKPlDBe-21" value="" style="endArrow=open;html=1;rounded=0;exitX=1;exitY=1;exitDx=0;exitDy=0;entryX=0;entryY=0;entryDx=0;entryDy=0;targetPerimeterSpacing=0;sourcePerimeterSpacing=0;endFill=0;strokeWidth=1.25;" parent="1" source="aqaGbpYnzecu4YKPlDBe-9" target="aqaGbpYnzecu4YKPlDBe-13" edge="1">
          <mxGeometry width="50" height="50" relative="1" as="geometry">
            <mxPoint x="450" y="308" as="sourcePoint" />
            <mxPoint x="482" y="342" as="targetPoint" />
          </mxGeometry>
        </mxCell>
        <mxCell id="aqaGbpYnzecu4YKPlDBe-22" value="" style="endArrow=open;html=1;rounded=0;exitX=1;exitY=1;exitDx=0;exitDy=0;entryX=0;entryY=0;entryDx=0;entryDy=0;targetPerimeterSpacing=0;sourcePerimeterSpacing=0;endFill=0;strokeWidth=1.25;" parent="1" source="aqaGbpYnzecu4YKPlDBe-6" target="aqaGbpYnzecu4YKPlDBe-11" edge="1">
          <mxGeometry width="50" height="50" relative="1" as="geometry">
            <mxPoint x="420" y="320" as="sourcePoint" />
            <mxPoint x="452" y="354" as="targetPoint" />
          </mxGeometry>
        </mxCell>
        <mxCell id="aqaGbpYnzecu4YKPlDBe-23" value="" style="endArrow=open;html=1;rounded=0;exitX=1;exitY=1;exitDx=0;exitDy=0;targetPerimeterSpacing=0;sourcePerimeterSpacing=0;endFill=0;strokeWidth=1.25;entryX=0;entryY=0;entryDx=0;entryDy=0;" parent="1" source="aqaGbpYnzecu4YKPlDBe-12" target="aqaGbpYnzecu4YKPlDBe-14" edge="1">
          <mxGeometry width="50" height="50" relative="1" as="geometry">
            <mxPoint x="490" y="354" as="sourcePoint" />
            <mxPoint x="240" y="420" as="targetPoint" />
          </mxGeometry>
        </mxCell>
        <mxCell id="aqaGbpYnzecu4YKPlDBe-24" value="" style="endArrow=open;html=1;rounded=0;exitX=1;exitY=1;exitDx=0;exitDy=0;entryX=0;entryY=0;entryDx=0;entryDy=0;targetPerimeterSpacing=0;sourcePerimeterSpacing=0;endFill=0;strokeWidth=1.25;" parent="1" source="aqaGbpYnzecu4YKPlDBe-10" target="aqaGbpYnzecu4YKPlDBe-12" edge="1">
          <mxGeometry width="50" height="50" relative="1" as="geometry">
            <mxPoint x="460" y="366" as="sourcePoint" />
            <mxPoint x="492" y="400" as="targetPoint" />
          </mxGeometry>
        </mxCell>
        <mxCell id="aqaGbpYnzecu4YKPlDBe-25" value="" style="endArrow=open;html=1;rounded=0;exitX=0;exitY=1;exitDx=0;exitDy=0;entryX=1;entryY=0;entryDx=0;entryDy=0;targetPerimeterSpacing=0;sourcePerimeterSpacing=0;endFill=0;strokeWidth=1.25;" parent="1" source="aqaGbpYnzecu4YKPlDBe-2" target="aqaGbpYnzecu4YKPlDBe-4" edge="1">
          <mxGeometry width="50" height="50" relative="1" as="geometry">
            <mxPoint x="360" y="259.09000000000003" as="sourcePoint" />
            <mxPoint x="392" y="291.09000000000003" as="targetPoint" />
          </mxGeometry>
        </mxCell>
        <mxCell id="aqaGbpYnzecu4YKPlDBe-26" value="" style="endArrow=open;html=1;rounded=0;exitX=0;exitY=1;exitDx=0;exitDy=0;entryX=1;entryY=0;entryDx=0;entryDy=0;targetPerimeterSpacing=0;sourcePerimeterSpacing=0;endFill=0;strokeWidth=1.25;" parent="1" source="aqaGbpYnzecu4YKPlDBe-5" target="aqaGbpYnzecu4YKPlDBe-6" edge="1">
          <mxGeometry width="50" height="50" relative="1" as="geometry">
            <mxPoint x="380" y="259.09000000000003" as="sourcePoint" />
            <mxPoint x="412" y="291.09000000000003" as="targetPoint" />
          </mxGeometry>
        </mxCell>
        <mxCell id="aqaGbpYnzecu4YKPlDBe-27" value="" style="endArrow=open;html=1;rounded=0;exitX=0;exitY=1;exitDx=0;exitDy=0;entryX=1;entryY=0;entryDx=0;entryDy=0;targetPerimeterSpacing=0;sourcePerimeterSpacing=0;endFill=0;strokeWidth=1.25;" parent="1" source="aqaGbpYnzecu4YKPlDBe-13" target="aqaGbpYnzecu4YKPlDBe-14" edge="1">
          <mxGeometry width="50" height="50" relative="1" as="geometry">
            <mxPoint x="400" y="259.09000000000003" as="sourcePoint" />
            <mxPoint x="432" y="291.09000000000003" as="targetPoint" />
          </mxGeometry>
        </mxCell>
        <mxCell id="aqaGbpYnzecu4YKPlDBe-28" value="" style="endArrow=open;html=1;rounded=0;exitX=0;exitY=1;exitDx=0;exitDy=0;entryX=1;entryY=0;entryDx=0;entryDy=0;targetPerimeterSpacing=0;sourcePerimeterSpacing=0;endFill=0;strokeWidth=1.25;" parent="1" source="aqaGbpYnzecu4YKPlDBe-8" target="aqaGbpYnzecu4YKPlDBe-11" edge="1">
          <mxGeometry width="50" height="50" relative="1" as="geometry">
            <mxPoint x="380" y="298.00000000000006" as="sourcePoint" />
            <mxPoint x="412" y="330.00000000000006" as="targetPoint" />
          </mxGeometry>
        </mxCell>
        <mxCell id="aqaGbpYnzecu4YKPlDBe-29" value="" style="endArrow=open;html=1;rounded=0;exitX=0;exitY=1;exitDx=0;exitDy=0;entryX=1;entryY=0;entryDx=0;entryDy=0;targetPerimeterSpacing=0;sourcePerimeterSpacing=0;endFill=0;strokeWidth=1.25;" parent="1" source="aqaGbpYnzecu4YKPlDBe-7" target="aqaGbpYnzecu4YKPlDBe-10" edge="1">
          <mxGeometry width="50" height="50" relative="1" as="geometry">
            <mxPoint x="400" y="298.00000000000006" as="sourcePoint" />
            <mxPoint x="432" y="330.00000000000006" as="targetPoint" />
          </mxGeometry>
        </mxCell>
        <mxCell id="aqaGbpYnzecu4YKPlDBe-30" value="" style="endArrow=open;html=1;rounded=0;exitX=0;exitY=1;exitDx=0;exitDy=0;entryX=1;entryY=0;entryDx=0;entryDy=0;targetPerimeterSpacing=0;sourcePerimeterSpacing=0;endFill=0;strokeWidth=1.25;" parent="1" source="aqaGbpYnzecu4YKPlDBe-9" target="aqaGbpYnzecu4YKPlDBe-12" edge="1">
          <mxGeometry width="50" height="50" relative="1" as="geometry">
            <mxPoint x="420" y="298.00000000000006" as="sourcePoint" />
            <mxPoint x="452" y="330.00000000000006" as="targetPoint" />
          </mxGeometry>
        </mxCell>
        <mxCell id="aqaGbpYnzecu4YKPlDBe-31" value="" style="endArrow=open;html=1;rounded=0;exitX=0;exitY=1;exitDx=0;exitDy=0;entryX=1;entryY=0;entryDx=0;entryDy=0;targetPerimeterSpacing=0;sourcePerimeterSpacing=0;endFill=0;strokeWidth=1.25;" parent="1" source="aqaGbpYnzecu4YKPlDBe-4" target="aqaGbpYnzecu4YKPlDBe-7" edge="1">
          <mxGeometry width="50" height="50" relative="1" as="geometry">
            <mxPoint x="390" y="338" as="sourcePoint" />
            <mxPoint x="422" y="370" as="targetPoint" />
          </mxGeometry>
        </mxCell>
        <mxCell id="aqaGbpYnzecu4YKPlDBe-32" value="" style="endArrow=open;html=1;rounded=0;exitX=0;exitY=1;exitDx=0;exitDy=0;entryX=1;entryY=0;entryDx=0;entryDy=0;targetPerimeterSpacing=0;sourcePerimeterSpacing=0;endFill=0;strokeWidth=1.25;" parent="1" source="aqaGbpYnzecu4YKPlDBe-6" target="aqaGbpYnzecu4YKPlDBe-9" edge="1">
          <mxGeometry width="50" height="50" relative="1" as="geometry">
            <mxPoint x="410" y="338" as="sourcePoint" />
            <mxPoint x="442" y="370" as="targetPoint" />
          </mxGeometry>
        </mxCell>
        <mxCell id="aqaGbpYnzecu4YKPlDBe-33" value="" style="endArrow=open;html=1;rounded=0;exitX=0;exitY=1;exitDx=0;exitDy=0;entryX=1;entryY=0;entryDx=0;entryDy=0;targetPerimeterSpacing=0;sourcePerimeterSpacing=0;endFill=0;strokeWidth=1.25;" parent="1" source="aqaGbpYnzecu4YKPlDBe-11" target="aqaGbpYnzecu4YKPlDBe-13" edge="1">
          <mxGeometry width="50" height="50" relative="1" as="geometry">
            <mxPoint x="430" y="338" as="sourcePoint" />
            <mxPoint x="462" y="370" as="targetPoint" />
          </mxGeometry>
        </mxCell>
        <mxCell id="U552cM0rFRxmbvw90yUP-1" value="&lt;font face=&quot;Times New Roman&quot;&gt;&lt;b&gt;8&lt;/b&gt;&lt;/font&gt;" style="ellipse;whiteSpace=wrap;html=1;aspect=fixed;strokeWidth=0.75;fillColor=#E6E6E6;" vertex="1" parent="1">
          <mxGeometry x="640" y="520" width="20" height="20" as="geometry" />
        </mxCell>
        <mxCell id="U552cM0rFRxmbvw90yUP-2" value="&lt;font face=&quot;Times New Roman&quot;&gt;&lt;b&gt;16&lt;/b&gt;&lt;/font&gt;" style="ellipse;whiteSpace=wrap;html=1;aspect=fixed;strokeWidth=0.75;fillColor=#f8cecc;strokeColor=#b85450;" vertex="1" parent="1">
          <mxGeometry x="720" y="520" width="20" height="20" as="geometry" />
        </mxCell>
        <mxCell id="U552cM0rFRxmbvw90yUP-3" value="&lt;font face=&quot;Times New Roman&quot;&gt;&lt;b&gt;4&lt;/b&gt;&lt;/font&gt;" style="ellipse;whiteSpace=wrap;html=1;aspect=fixed;strokeWidth=0.75;fillColor=#E6E6E6;" vertex="1" parent="1">
          <mxGeometry x="560" y="520" width="20" height="20" as="geometry" />
        </mxCell>
        <mxCell id="U552cM0rFRxmbvw90yUP-4" value="&lt;font face=&quot;Times New Roman&quot;&gt;&lt;b&gt;2&lt;/b&gt;&lt;/font&gt;" style="ellipse;whiteSpace=wrap;html=1;aspect=fixed;strokeWidth=0.75;fillColor=#E6E6E6;" vertex="1" parent="1">
          <mxGeometry x="480" y="520" width="20" height="20" as="geometry" />
        </mxCell>
        <mxCell id="U552cM0rFRxmbvw90yUP-5" value="&lt;font face=&quot;Times New Roman&quot;&gt;&lt;b&gt;1&lt;/b&gt;&lt;/font&gt;" style="ellipse;whiteSpace=wrap;html=1;aspect=fixed;strokeWidth=0.75;fillColor=#f8cecc;strokeColor=#b85450;" vertex="1" parent="1">
          <mxGeometry x="400" y="520" width="20" height="20" as="geometry" />
        </mxCell>
        <mxCell id="U552cM0rFRxmbvw90yUP-6" value="&lt;font face=&quot;Times New Roman&quot;&gt;&amp;nbsp;2&amp;nbsp;&lt;/font&gt;" style="curved=1;endArrow=open;html=1;rounded=0;exitX=1;exitY=0.5;exitDx=0;exitDy=0;entryX=0;entryY=0.5;entryDx=0;entryDy=0;endFill=0;" edge="1" parent="1" source="U552cM0rFRxmbvw90yUP-5" target="U552cM0rFRxmbvw90yUP-4">
          <mxGeometry width="50" height="50" relative="1" as="geometry">
            <mxPoint x="490" y="490" as="sourcePoint" />
            <mxPoint x="540" y="440" as="targetPoint" />
            <Array as="points" />
          </mxGeometry>
        </mxCell>
        <mxCell id="U552cM0rFRxmbvw90yUP-13" value="&lt;font face=&quot;Times New Roman&quot;&gt;&lt;b&gt;4&lt;/b&gt;&lt;/font&gt;" style="ellipse;whiteSpace=wrap;html=1;aspect=fixed;strokeWidth=0.75;fillColor=#E6E6E6;" vertex="1" parent="1">
          <mxGeometry x="560" y="740" width="20" height="20" as="geometry" />
        </mxCell>
        <mxCell id="U552cM0rFRxmbvw90yUP-14" value="&lt;font face=&quot;Times New Roman&quot;&gt;&lt;b&gt;2&lt;/b&gt;&lt;/font&gt;" style="ellipse;whiteSpace=wrap;html=1;aspect=fixed;strokeWidth=0.75;fillColor=#E6E6E6;" vertex="1" parent="1">
          <mxGeometry x="480" y="740" width="20" height="20" as="geometry" />
        </mxCell>
        <mxCell id="U552cM0rFRxmbvw90yUP-15" value="&lt;font face=&quot;Times New Roman&quot;&gt;&lt;b&gt;1&lt;/b&gt;&lt;/font&gt;" style="ellipse;whiteSpace=wrap;html=1;aspect=fixed;strokeWidth=0.75;fillColor=#f8cecc;strokeColor=#b85450;" vertex="1" parent="1">
          <mxGeometry x="400" y="740" width="20" height="20" as="geometry" />
        </mxCell>
        <mxCell id="U552cM0rFRxmbvw90yUP-20" value="&lt;font face=&quot;Times New Roman&quot;&gt;&lt;b&gt;12&lt;/b&gt;&lt;/font&gt;" style="ellipse;whiteSpace=wrap;html=1;aspect=fixed;strokeWidth=0.75;fillColor=#E6E6E6;" vertex="1" parent="1">
          <mxGeometry x="560" y="660" width="20" height="20" as="geometry" />
        </mxCell>
        <mxCell id="U552cM0rFRxmbvw90yUP-21" value="&lt;font face=&quot;Times New Roman&quot;&gt;&lt;b&gt;6&lt;/b&gt;&lt;/font&gt;" style="ellipse;whiteSpace=wrap;html=1;aspect=fixed;strokeWidth=0.75;fillColor=#E6E6E6;" vertex="1" parent="1">
          <mxGeometry x="480" y="660" width="20" height="20" as="geometry" />
        </mxCell>
        <mxCell id="U552cM0rFRxmbvw90yUP-22" value="&lt;font face=&quot;Times New Roman&quot;&gt;&lt;b&gt;3&lt;/b&gt;&lt;/font&gt;" style="ellipse;whiteSpace=wrap;html=1;aspect=fixed;strokeWidth=0.75;fillColor=#E6E6E6;" vertex="1" parent="1">
          <mxGeometry x="400" y="660" width="20" height="20" as="geometry" />
        </mxCell>
        <mxCell id="U552cM0rFRxmbvw90yUP-23" value="&lt;font face=&quot;Times New Roman&quot;&gt;&lt;b&gt;36&lt;/b&gt;&lt;/font&gt;" style="ellipse;whiteSpace=wrap;html=1;aspect=fixed;strokeWidth=0.75;fillColor=#f8cecc;strokeColor=#b85450;" vertex="1" parent="1">
          <mxGeometry x="560" y="580" width="20" height="20" as="geometry" />
        </mxCell>
        <mxCell id="U552cM0rFRxmbvw90yUP-24" value="&lt;font face=&quot;Times New Roman&quot;&gt;&lt;b&gt;18&lt;/b&gt;&lt;/font&gt;" style="ellipse;whiteSpace=wrap;html=1;aspect=fixed;strokeWidth=0.75;fillColor=#E6E6E6;" vertex="1" parent="1">
          <mxGeometry x="480" y="580" width="20" height="20" as="geometry" />
        </mxCell>
        <mxCell id="U552cM0rFRxmbvw90yUP-25" value="&lt;font face=&quot;Times New Roman&quot;&gt;&lt;b&gt;9&lt;/b&gt;&lt;/font&gt;" style="ellipse;whiteSpace=wrap;html=1;aspect=fixed;strokeWidth=0.75;fillColor=#E6E6E6;" vertex="1" parent="1">
          <mxGeometry x="400" y="580" width="20" height="20" as="geometry" />
        </mxCell>
        <mxCell id="U552cM0rFRxmbvw90yUP-33" value="&lt;font face=&quot;Times New Roman&quot;&gt;3&lt;/font&gt;" style="curved=1;endArrow=open;html=1;rounded=0;exitX=0.5;exitY=0;exitDx=0;exitDy=0;entryX=0.5;entryY=1;entryDx=0;entryDy=0;endFill=0;" edge="1" parent="1" source="U552cM0rFRxmbvw90yUP-20" target="U552cM0rFRxmbvw90yUP-23">
          <mxGeometry x="0.0025" width="50" height="50" relative="1" as="geometry">
            <mxPoint x="563" y="663" as="sourcePoint" />
            <mxPoint x="563" y="597" as="targetPoint" />
            <Array as="points" />
            <mxPoint as="offset" />
          </mxGeometry>
        </mxCell>
        <mxCell id="U552cM0rFRxmbvw90yUP-36" value="&lt;font face=&quot;Times New Roman&quot;&gt;&lt;b&gt;2&lt;/b&gt;&lt;/font&gt;" style="ellipse;whiteSpace=wrap;html=1;aspect=fixed;strokeWidth=0.75;fillColor=#E6E6E6;" vertex="1" parent="1">
          <mxGeometry x="853" y="700" width="20" height="20" as="geometry" />
        </mxCell>
        <mxCell id="U552cM0rFRxmbvw90yUP-37" value="&lt;font face=&quot;Times New Roman&quot;&gt;&lt;b&gt;1&lt;/b&gt;&lt;/font&gt;" style="ellipse;whiteSpace=wrap;html=1;aspect=fixed;strokeWidth=0.75;fillColor=#f8cecc;strokeColor=#b85450;" vertex="1" parent="1">
          <mxGeometry x="773" y="700" width="20" height="20" as="geometry" />
        </mxCell>
        <mxCell id="U552cM0rFRxmbvw90yUP-39" value="&lt;font face=&quot;Times New Roman&quot;&gt;&lt;b&gt;6&lt;/b&gt;&lt;/font&gt;" style="ellipse;whiteSpace=wrap;html=1;aspect=fixed;strokeWidth=0.75;fillColor=#E6E6E6;" vertex="1" parent="1">
          <mxGeometry x="853" y="620" width="20" height="20" as="geometry" />
        </mxCell>
        <mxCell id="U552cM0rFRxmbvw90yUP-40" value="&lt;font face=&quot;Times New Roman&quot;&gt;&lt;b&gt;3&lt;/b&gt;&lt;/font&gt;" style="ellipse;whiteSpace=wrap;html=1;aspect=fixed;strokeWidth=0.75;fillColor=#E6E6E6;" vertex="1" parent="1">
          <mxGeometry x="773" y="620" width="20" height="20" as="geometry" />
        </mxCell>
        <mxCell id="U552cM0rFRxmbvw90yUP-62" value="&lt;font face=&quot;Times New Roman&quot;&gt;&amp;nbsp;2&amp;nbsp;&lt;/font&gt;" style="curved=1;endArrow=open;html=1;rounded=0;exitX=1;exitY=0.5;exitDx=0;exitDy=0;entryX=0;entryY=0.5;entryDx=0;entryDy=0;endFill=0;" edge="1" parent="1">
          <mxGeometry width="50" height="50" relative="1" as="geometry">
            <mxPoint x="500" y="529.75" as="sourcePoint" />
            <mxPoint x="560" y="529.75" as="targetPoint" />
            <Array as="points" />
          </mxGeometry>
        </mxCell>
        <mxCell id="U552cM0rFRxmbvw90yUP-63" value="&lt;font face=&quot;Times New Roman&quot;&gt;&amp;nbsp;2&amp;nbsp;&lt;/font&gt;" style="curved=1;endArrow=open;html=1;rounded=0;exitX=1;exitY=0.5;exitDx=0;exitDy=0;entryX=0;entryY=0.5;entryDx=0;entryDy=0;endFill=0;" edge="1" parent="1">
          <mxGeometry width="50" height="50" relative="1" as="geometry">
            <mxPoint x="580" y="529.75" as="sourcePoint" />
            <mxPoint x="640" y="529.75" as="targetPoint" />
            <Array as="points" />
          </mxGeometry>
        </mxCell>
        <mxCell id="U552cM0rFRxmbvw90yUP-64" value="&lt;font face=&quot;Times New Roman&quot;&gt;&amp;nbsp;2&amp;nbsp;&lt;/font&gt;" style="curved=1;endArrow=open;html=1;rounded=0;exitX=1;exitY=0.5;exitDx=0;exitDy=0;entryX=0;entryY=0.5;entryDx=0;entryDy=0;endFill=0;" edge="1" parent="1">
          <mxGeometry width="50" height="50" relative="1" as="geometry">
            <mxPoint x="660" y="529.75" as="sourcePoint" />
            <mxPoint x="720" y="529.75" as="targetPoint" />
            <Array as="points" />
          </mxGeometry>
        </mxCell>
        <mxCell id="U552cM0rFRxmbvw90yUP-65" value="&lt;font face=&quot;Times New Roman&quot;&gt;&amp;nbsp;2&amp;nbsp;&lt;/font&gt;" style="curved=1;endArrow=open;html=1;rounded=0;exitX=1;exitY=0.5;exitDx=0;exitDy=0;entryX=0;entryY=0.5;entryDx=0;entryDy=0;endFill=0;" edge="1" parent="1">
          <mxGeometry width="50" height="50" relative="1" as="geometry">
            <mxPoint x="420" y="749.75" as="sourcePoint" />
            <mxPoint x="480" y="749.75" as="targetPoint" />
            <Array as="points" />
          </mxGeometry>
        </mxCell>
        <mxCell id="U552cM0rFRxmbvw90yUP-66" value="&lt;font face=&quot;Times New Roman&quot;&gt;&amp;nbsp;2&amp;nbsp;&lt;/font&gt;" style="curved=1;endArrow=open;html=1;rounded=0;exitX=1;exitY=0.5;exitDx=0;exitDy=0;entryX=0;entryY=0.5;entryDx=0;entryDy=0;endFill=0;" edge="1" parent="1">
          <mxGeometry width="50" height="50" relative="1" as="geometry">
            <mxPoint x="500" y="749.75" as="sourcePoint" />
            <mxPoint x="560" y="749.75" as="targetPoint" />
            <Array as="points" />
          </mxGeometry>
        </mxCell>
        <mxCell id="U552cM0rFRxmbvw90yUP-67" value="&lt;font face=&quot;Times New Roman&quot;&gt;&amp;nbsp;2&amp;nbsp;&lt;/font&gt;" style="curved=1;endArrow=open;html=1;rounded=0;exitX=1;exitY=0.5;exitDx=0;exitDy=0;entryX=0;entryY=0.5;entryDx=0;entryDy=0;endFill=0;" edge="1" parent="1">
          <mxGeometry width="50" height="50" relative="1" as="geometry">
            <mxPoint x="420" y="669.75" as="sourcePoint" />
            <mxPoint x="480" y="669.75" as="targetPoint" />
            <Array as="points" />
          </mxGeometry>
        </mxCell>
        <mxCell id="U552cM0rFRxmbvw90yUP-68" value="&lt;font face=&quot;Times New Roman&quot;&gt;&amp;nbsp;2&amp;nbsp;&lt;/font&gt;" style="curved=1;endArrow=open;html=1;rounded=0;exitX=1;exitY=0.5;exitDx=0;exitDy=0;entryX=0;entryY=0.5;entryDx=0;entryDy=0;endFill=0;" edge="1" parent="1">
          <mxGeometry width="50" height="50" relative="1" as="geometry">
            <mxPoint x="500" y="669.75" as="sourcePoint" />
            <mxPoint x="560" y="669.75" as="targetPoint" />
            <Array as="points" />
          </mxGeometry>
        </mxCell>
        <mxCell id="U552cM0rFRxmbvw90yUP-69" value="&lt;font face=&quot;Times New Roman&quot;&gt;&amp;nbsp;2&amp;nbsp;&lt;/font&gt;" style="curved=1;endArrow=open;html=1;rounded=0;exitX=1;exitY=0.5;exitDx=0;exitDy=0;entryX=0;entryY=0.5;entryDx=0;entryDy=0;endFill=0;" edge="1" parent="1">
          <mxGeometry width="50" height="50" relative="1" as="geometry">
            <mxPoint x="420" y="589.75" as="sourcePoint" />
            <mxPoint x="480" y="589.75" as="targetPoint" />
            <Array as="points" />
          </mxGeometry>
        </mxCell>
        <mxCell id="U552cM0rFRxmbvw90yUP-70" value="&lt;font face=&quot;Times New Roman&quot;&gt;&amp;nbsp;2&amp;nbsp;&lt;/font&gt;" style="curved=1;endArrow=open;html=1;rounded=0;exitX=1;exitY=0.5;exitDx=0;exitDy=0;entryX=0;entryY=0.5;entryDx=0;entryDy=0;endFill=0;" edge="1" parent="1">
          <mxGeometry width="50" height="50" relative="1" as="geometry">
            <mxPoint x="500" y="589.75" as="sourcePoint" />
            <mxPoint x="560" y="589.75" as="targetPoint" />
            <Array as="points" />
          </mxGeometry>
        </mxCell>
        <mxCell id="U552cM0rFRxmbvw90yUP-71" value="&lt;font face=&quot;Times New Roman&quot;&gt;3&lt;/font&gt;" style="curved=1;endArrow=open;html=1;rounded=0;exitX=0.5;exitY=0;exitDx=0;exitDy=0;entryX=0.5;entryY=1;entryDx=0;entryDy=0;endFill=0;" edge="1" parent="1">
          <mxGeometry x="0.0025" width="50" height="50" relative="1" as="geometry">
            <mxPoint x="489.75" y="660" as="sourcePoint" />
            <mxPoint x="489.75" y="600" as="targetPoint" />
            <Array as="points" />
            <mxPoint as="offset" />
          </mxGeometry>
        </mxCell>
        <mxCell id="U552cM0rFRxmbvw90yUP-72" value="&lt;font face=&quot;Times New Roman&quot;&gt;3&lt;/font&gt;" style="curved=1;endArrow=open;html=1;rounded=0;exitX=0.5;exitY=0;exitDx=0;exitDy=0;entryX=0.5;entryY=1;entryDx=0;entryDy=0;endFill=0;" edge="1" parent="1">
          <mxGeometry x="0.0025" width="50" height="50" relative="1" as="geometry">
            <mxPoint x="409.75" y="660" as="sourcePoint" />
            <mxPoint x="409.75" y="600" as="targetPoint" />
            <Array as="points" />
            <mxPoint as="offset" />
          </mxGeometry>
        </mxCell>
        <mxCell id="U552cM0rFRxmbvw90yUP-73" value="&lt;font face=&quot;Times New Roman&quot;&gt;3&lt;/font&gt;" style="curved=1;endArrow=open;html=1;rounded=0;exitX=0.5;exitY=0;exitDx=0;exitDy=0;entryX=0.5;entryY=1;entryDx=0;entryDy=0;endFill=0;" edge="1" parent="1">
          <mxGeometry x="0.0025" width="50" height="50" relative="1" as="geometry">
            <mxPoint x="409.75" y="739" as="sourcePoint" />
            <mxPoint x="409.75" y="679" as="targetPoint" />
            <Array as="points" />
            <mxPoint as="offset" />
          </mxGeometry>
        </mxCell>
        <mxCell id="U552cM0rFRxmbvw90yUP-74" value="&lt;font face=&quot;Times New Roman&quot;&gt;3&lt;/font&gt;" style="curved=1;endArrow=open;html=1;rounded=0;exitX=0.5;exitY=0;exitDx=0;exitDy=0;entryX=0.5;entryY=1;entryDx=0;entryDy=0;endFill=0;" edge="1" parent="1">
          <mxGeometry x="0.0025" width="50" height="50" relative="1" as="geometry">
            <mxPoint x="489.75" y="740" as="sourcePoint" />
            <mxPoint x="489.75" y="680" as="targetPoint" />
            <Array as="points" />
            <mxPoint as="offset" />
          </mxGeometry>
        </mxCell>
        <mxCell id="U552cM0rFRxmbvw90yUP-75" value="&lt;font face=&quot;Times New Roman&quot;&gt;3&lt;/font&gt;" style="curved=1;endArrow=open;html=1;rounded=0;exitX=0.5;exitY=0;exitDx=0;exitDy=0;entryX=0.5;entryY=1;entryDx=0;entryDy=0;endFill=0;" edge="1" parent="1">
          <mxGeometry x="0.0025" width="50" height="50" relative="1" as="geometry">
            <mxPoint x="569.75" y="739" as="sourcePoint" />
            <mxPoint x="569.75" y="679" as="targetPoint" />
            <Array as="points" />
            <mxPoint as="offset" />
          </mxGeometry>
        </mxCell>
        <mxCell id="U552cM0rFRxmbvw90yUP-76" value="&lt;font face=&quot;Times New Roman&quot;&gt;&amp;nbsp;2&amp;nbsp;&lt;/font&gt;" style="curved=1;endArrow=open;html=1;rounded=0;exitX=1;exitY=0.5;exitDx=0;exitDy=0;entryX=0;entryY=0.5;entryDx=0;entryDy=0;endFill=0;" edge="1" parent="1">
          <mxGeometry width="50" height="50" relative="1" as="geometry">
            <mxPoint x="793" y="629.62" as="sourcePoint" />
            <mxPoint x="853" y="629.62" as="targetPoint" />
            <Array as="points" />
          </mxGeometry>
        </mxCell>
        <mxCell id="U552cM0rFRxmbvw90yUP-80" value="&lt;font face=&quot;Times New Roman&quot;&gt;3&lt;/font&gt;" style="curved=1;endArrow=open;html=1;rounded=0;exitX=0.5;exitY=0;exitDx=0;exitDy=0;entryX=0.5;entryY=1;entryDx=0;entryDy=0;endFill=0;" edge="1" parent="1">
          <mxGeometry x="0.0025" width="50" height="50" relative="1" as="geometry">
            <mxPoint x="862.77" y="700" as="sourcePoint" />
            <mxPoint x="862.77" y="640" as="targetPoint" />
            <Array as="points" />
            <mxPoint as="offset" />
          </mxGeometry>
        </mxCell>
        <mxCell id="U552cM0rFRxmbvw90yUP-83" value="&lt;font face=&quot;Times New Roman&quot;&gt;&lt;b&gt;10&lt;/b&gt;&lt;/font&gt;" style="ellipse;whiteSpace=wrap;html=1;aspect=fixed;strokeWidth=0.75;fillColor=#E6E6E6;" vertex="1" parent="1">
          <mxGeometry x="800" y="728" width="20" height="20" as="geometry" />
        </mxCell>
        <mxCell id="U552cM0rFRxmbvw90yUP-84" value="&lt;font face=&quot;Times New Roman&quot;&gt;&lt;b&gt;5&lt;/b&gt;&lt;/font&gt;" style="ellipse;whiteSpace=wrap;html=1;aspect=fixed;strokeWidth=0.75;fillColor=#E6E6E6;" vertex="1" parent="1">
          <mxGeometry x="720" y="728" width="20" height="20" as="geometry" />
        </mxCell>
        <mxCell id="U552cM0rFRxmbvw90yUP-85" value="&lt;font face=&quot;Times New Roman&quot;&gt;&lt;b&gt;30&lt;/b&gt;&lt;/font&gt;" style="ellipse;whiteSpace=wrap;html=1;aspect=fixed;strokeWidth=0.75;fillColor=#E6E6E6;" vertex="1" parent="1">
          <mxGeometry x="800" y="648" width="20" height="20" as="geometry" />
        </mxCell>
        <mxCell id="U552cM0rFRxmbvw90yUP-86" value="&lt;font face=&quot;Times New Roman&quot;&gt;&lt;b&gt;15&lt;/b&gt;&lt;/font&gt;" style="ellipse;whiteSpace=wrap;html=1;aspect=fixed;strokeWidth=0.75;fillColor=#E6E6E6;" vertex="1" parent="1">
          <mxGeometry x="720" y="648" width="20" height="20" as="geometry" />
        </mxCell>
        <mxCell id="U552cM0rFRxmbvw90yUP-87" value="&lt;font face=&quot;Times New Roman&quot;&gt;&amp;nbsp;2&amp;nbsp;&lt;/font&gt;" style="curved=1;endArrow=open;html=1;rounded=0;exitX=1;exitY=0.5;exitDx=0;exitDy=0;entryX=0;entryY=0.5;entryDx=0;entryDy=0;endFill=0;" edge="1" parent="1">
          <mxGeometry width="50" height="50" relative="1" as="geometry">
            <mxPoint x="740" y="657.62" as="sourcePoint" />
            <mxPoint x="800" y="657.62" as="targetPoint" />
            <Array as="points" />
          </mxGeometry>
        </mxCell>
        <mxCell id="U552cM0rFRxmbvw90yUP-88" value="&lt;font face=&quot;Times New Roman&quot;&gt;&amp;nbsp;2&amp;nbsp;&lt;/font&gt;" style="curved=1;endArrow=open;html=1;rounded=0;exitX=1;exitY=0.5;exitDx=0;exitDy=0;entryX=0;entryY=0.5;entryDx=0;entryDy=0;endFill=0;" edge="1" parent="1">
          <mxGeometry width="50" height="50" relative="1" as="geometry">
            <mxPoint x="740" y="737.77" as="sourcePoint" />
            <mxPoint x="800" y="737.77" as="targetPoint" />
            <Array as="points" />
          </mxGeometry>
        </mxCell>
        <mxCell id="U552cM0rFRxmbvw90yUP-89" value="&lt;font face=&quot;Times New Roman&quot;&gt;3&lt;/font&gt;" style="curved=1;endArrow=open;html=1;rounded=0;exitX=0.5;exitY=0;exitDx=0;exitDy=0;entryX=0.5;entryY=1;entryDx=0;entryDy=0;endFill=0;" edge="1" parent="1">
          <mxGeometry x="0.0025" width="50" height="50" relative="1" as="geometry">
            <mxPoint x="809.77" y="728" as="sourcePoint" />
            <mxPoint x="809.77" y="668" as="targetPoint" />
            <Array as="points" />
            <mxPoint as="offset" />
          </mxGeometry>
        </mxCell>
        <mxCell id="U552cM0rFRxmbvw90yUP-90" value="&lt;font face=&quot;Times New Roman&quot;&gt;3&lt;/font&gt;" style="curved=1;endArrow=open;html=1;rounded=0;exitX=0.5;exitY=0;exitDx=0;exitDy=0;entryX=0.5;entryY=1;entryDx=0;entryDy=0;endFill=0;" edge="1" parent="1">
          <mxGeometry x="0.0025" width="50" height="50" relative="1" as="geometry">
            <mxPoint x="729.77" y="727" as="sourcePoint" />
            <mxPoint x="729.77" y="667" as="targetPoint" />
            <Array as="points" />
            <mxPoint as="offset" />
          </mxGeometry>
        </mxCell>
        <mxCell id="U552cM0rFRxmbvw90yUP-91" value="&lt;font face=&quot;Times New Roman&quot;&gt;&amp;nbsp;5&amp;nbsp;&lt;/font&gt;" style="curved=1;endArrow=open;html=1;rounded=0;endFill=0;exitX=0.056;exitY=0.745;exitDx=0;exitDy=0;exitPerimeter=0;entryX=0.918;entryY=0.252;entryDx=0;entryDy=0;entryPerimeter=0;" edge="1" parent="1" source="U552cM0rFRxmbvw90yUP-37" target="U552cM0rFRxmbvw90yUP-84">
          <mxGeometry width="50" height="50" relative="1" as="geometry">
            <mxPoint x="683" y="710" as="sourcePoint" />
            <mxPoint x="743" y="710" as="targetPoint" />
            <Array as="points" />
          </mxGeometry>
        </mxCell>
        <mxCell id="U552cM0rFRxmbvw90yUP-92" value="&lt;font face=&quot;Times New Roman&quot;&gt;&amp;nbsp;5&amp;nbsp;&lt;/font&gt;" style="curved=1;endArrow=open;html=1;rounded=0;endFill=0;exitX=0.056;exitY=0.745;exitDx=0;exitDy=0;exitPerimeter=0;entryX=0.918;entryY=0.252;entryDx=0;entryDy=0;entryPerimeter=0;" edge="1" parent="1">
          <mxGeometry width="50" height="50" relative="1" as="geometry">
            <mxPoint x="855" y="716" as="sourcePoint" />
            <mxPoint x="819" y="734" as="targetPoint" />
            <Array as="points" />
          </mxGeometry>
        </mxCell>
        <mxCell id="U552cM0rFRxmbvw90yUP-93" value="&lt;font face=&quot;Times New Roman&quot;&gt;&amp;nbsp;5&amp;nbsp;&lt;/font&gt;" style="curved=1;endArrow=open;html=1;rounded=0;endFill=0;exitX=0.056;exitY=0.745;exitDx=0;exitDy=0;exitPerimeter=0;entryX=0.918;entryY=0.252;entryDx=0;entryDy=0;entryPerimeter=0;" edge="1" parent="1">
          <mxGeometry width="50" height="50" relative="1" as="geometry">
            <mxPoint x="773" y="633" as="sourcePoint" />
            <mxPoint x="737" y="651" as="targetPoint" />
            <Array as="points" />
          </mxGeometry>
        </mxCell>
        <mxCell id="U552cM0rFRxmbvw90yUP-94" value="&lt;font face=&quot;Times New Roman&quot;&gt;&amp;nbsp;5&amp;nbsp;&lt;/font&gt;" style="curved=1;endArrow=open;html=1;rounded=0;endFill=0;exitX=0.056;exitY=0.745;exitDx=0;exitDy=0;exitPerimeter=0;entryX=0.918;entryY=0.252;entryDx=0;entryDy=0;entryPerimeter=0;" edge="1" parent="1">
          <mxGeometry width="50" height="50" relative="1" as="geometry">
            <mxPoint x="854" y="634" as="sourcePoint" />
            <mxPoint x="818" y="652" as="targetPoint" />
            <Array as="points" />
          </mxGeometry>
        </mxCell>
        <mxCell id="U552cM0rFRxmbvw90yUP-98" value="" style="ellipse;whiteSpace=wrap;html=1;aspect=fixed;strokeColor=none;" vertex="1" parent="1">
          <mxGeometry x="860" y="655" width="5" height="5" as="geometry" />
        </mxCell>
        <mxCell id="U552cM0rFRxmbvw90yUP-99" value="&lt;font face=&quot;Times New Roman&quot;&gt;&amp;nbsp;2&amp;nbsp;&lt;/font&gt;" style="curved=1;endArrow=open;html=1;rounded=0;exitX=1;exitY=0.5;exitDx=0;exitDy=0;entryX=0;entryY=0.5;entryDx=0;entryDy=0;endFill=0;" edge="1" parent="1">
          <mxGeometry width="50" height="50" relative="1" as="geometry">
            <mxPoint x="873" y="709.77" as="sourcePoint" />
            <mxPoint x="933" y="709.77" as="targetPoint" />
            <Array as="points" />
          </mxGeometry>
        </mxCell>
        <mxCell id="U552cM0rFRxmbvw90yUP-100" value="" style="ellipse;whiteSpace=wrap;html=1;aspect=fixed;strokeColor=none;" vertex="1" parent="1">
          <mxGeometry x="887" y="707" width="5" height="5" as="geometry" />
        </mxCell>
        <mxCell id="U552cM0rFRxmbvw90yUP-101" value="&lt;font face=&quot;Times New Roman&quot;&gt;&lt;b&gt;4&lt;/b&gt;&lt;/font&gt;" style="ellipse;whiteSpace=wrap;html=1;aspect=fixed;strokeWidth=0.75;fillColor=#E6E6E6;" vertex="1" parent="1">
          <mxGeometry x="933" y="700" width="20" height="20" as="geometry" />
        </mxCell>
        <mxCell id="U552cM0rFRxmbvw90yUP-103" value="&lt;font face=&quot;Times New Roman&quot;&gt;&lt;b&gt;12&lt;/b&gt;&lt;/font&gt;" style="ellipse;whiteSpace=wrap;html=1;aspect=fixed;strokeWidth=0.75;fillColor=#E6E6E6;" vertex="1" parent="1">
          <mxGeometry x="933" y="620" width="20" height="20" as="geometry" />
        </mxCell>
        <mxCell id="U552cM0rFRxmbvw90yUP-105" value="&lt;font face=&quot;Times New Roman&quot;&gt;&amp;nbsp;2&amp;nbsp;&lt;/font&gt;" style="curved=1;endArrow=open;html=1;rounded=0;exitX=1;exitY=0.5;exitDx=0;exitDy=0;entryX=0;entryY=0.5;entryDx=0;entryDy=0;endFill=0;" edge="1" parent="1">
          <mxGeometry width="50" height="50" relative="1" as="geometry">
            <mxPoint x="873" y="629.62" as="sourcePoint" />
            <mxPoint x="933" y="629.62" as="targetPoint" />
            <Array as="points" />
          </mxGeometry>
        </mxCell>
        <mxCell id="U552cM0rFRxmbvw90yUP-106" value="&lt;font face=&quot;Times New Roman&quot;&gt;3&lt;/font&gt;" style="curved=1;endArrow=open;html=1;rounded=0;exitX=0.5;exitY=0;exitDx=0;exitDy=0;entryX=0.5;entryY=1;entryDx=0;entryDy=0;endFill=0;" edge="1" parent="1">
          <mxGeometry x="0.0025" width="50" height="50" relative="1" as="geometry">
            <mxPoint x="942.77" y="700" as="sourcePoint" />
            <mxPoint x="942.77" y="640" as="targetPoint" />
            <Array as="points" />
            <mxPoint as="offset" />
          </mxGeometry>
        </mxCell>
        <mxCell id="U552cM0rFRxmbvw90yUP-107" value="&lt;font face=&quot;Times New Roman&quot;&gt;&lt;b&gt;20&lt;/b&gt;&lt;/font&gt;" style="ellipse;whiteSpace=wrap;html=1;aspect=fixed;strokeWidth=0.75;fillColor=#E6E6E6;" vertex="1" parent="1">
          <mxGeometry x="880" y="728" width="20" height="20" as="geometry" />
        </mxCell>
        <mxCell id="U552cM0rFRxmbvw90yUP-109" value="&lt;font face=&quot;Times New Roman&quot;&gt;&lt;b&gt;60&lt;/b&gt;&lt;/font&gt;" style="ellipse;whiteSpace=wrap;html=1;aspect=fixed;strokeWidth=0.75;fillColor=#f8cecc;strokeColor=#b85450;" vertex="1" parent="1">
          <mxGeometry x="880" y="648" width="20" height="20" as="geometry" />
        </mxCell>
        <mxCell id="U552cM0rFRxmbvw90yUP-111" value="&lt;font face=&quot;Times New Roman&quot;&gt;&amp;nbsp;2&amp;nbsp;&lt;/font&gt;" style="curved=1;endArrow=open;html=1;rounded=0;exitX=1;exitY=0.5;exitDx=0;exitDy=0;entryX=0;entryY=0.5;entryDx=0;entryDy=0;endFill=0;" edge="1" parent="1">
          <mxGeometry width="50" height="50" relative="1" as="geometry">
            <mxPoint x="820" y="657.62" as="sourcePoint" />
            <mxPoint x="880" y="657.62" as="targetPoint" />
            <Array as="points" />
          </mxGeometry>
        </mxCell>
        <mxCell id="U552cM0rFRxmbvw90yUP-112" value="&lt;font face=&quot;Times New Roman&quot;&gt;&amp;nbsp;2&amp;nbsp;&lt;/font&gt;" style="curved=1;endArrow=open;html=1;rounded=0;exitX=1;exitY=0.5;exitDx=0;exitDy=0;entryX=0;entryY=0.5;entryDx=0;entryDy=0;endFill=0;" edge="1" parent="1">
          <mxGeometry width="50" height="50" relative="1" as="geometry">
            <mxPoint x="820" y="737.77" as="sourcePoint" />
            <mxPoint x="880" y="737.77" as="targetPoint" />
            <Array as="points" />
          </mxGeometry>
        </mxCell>
        <mxCell id="U552cM0rFRxmbvw90yUP-113" value="&lt;font face=&quot;Times New Roman&quot;&gt;3&lt;/font&gt;" style="curved=1;endArrow=open;html=1;rounded=0;exitX=0.5;exitY=0;exitDx=0;exitDy=0;entryX=0.5;entryY=1;entryDx=0;entryDy=0;endFill=0;" edge="1" parent="1">
          <mxGeometry x="0.0025" width="50" height="50" relative="1" as="geometry">
            <mxPoint x="889.77" y="728" as="sourcePoint" />
            <mxPoint x="889.77" y="668" as="targetPoint" />
            <Array as="points" />
            <mxPoint as="offset" />
          </mxGeometry>
        </mxCell>
        <mxCell id="U552cM0rFRxmbvw90yUP-116" value="&lt;font face=&quot;Times New Roman&quot;&gt;&amp;nbsp;5&amp;nbsp;&lt;/font&gt;" style="curved=1;endArrow=open;html=1;rounded=0;endFill=0;exitX=0.056;exitY=0.745;exitDx=0;exitDy=0;exitPerimeter=0;entryX=0.918;entryY=0.252;entryDx=0;entryDy=0;entryPerimeter=0;" edge="1" parent="1">
          <mxGeometry width="50" height="50" relative="1" as="geometry">
            <mxPoint x="935" y="716" as="sourcePoint" />
            <mxPoint x="899" y="734" as="targetPoint" />
            <Array as="points" />
          </mxGeometry>
        </mxCell>
        <mxCell id="U552cM0rFRxmbvw90yUP-118" value="&lt;font face=&quot;Times New Roman&quot;&gt;&amp;nbsp;5&amp;nbsp;&lt;/font&gt;" style="curved=1;endArrow=open;html=1;rounded=0;endFill=0;exitX=0.056;exitY=0.745;exitDx=0;exitDy=0;exitPerimeter=0;entryX=0.918;entryY=0.252;entryDx=0;entryDy=0;entryPerimeter=0;" edge="1" parent="1">
          <mxGeometry width="50" height="50" relative="1" as="geometry">
            <mxPoint x="934" y="634" as="sourcePoint" />
            <mxPoint x="898" y="652" as="targetPoint" />
            <Array as="points" />
          </mxGeometry>
        </mxCell>
      </root>
    </mxGraphModel>
  </diagram>
</mxfile>
